<svg width="24" height="24" viewBox="0 0 24 24" fill="none" xmlns="http://www.w3.org/2000/svg">
<path fill-rule="evenodd" clip-rule="evenodd" d="M12 0C5.37346 0 0 5.50832 0 12.3037C0 17.7398 3.4384 22.3518 8.20636 23.9788C8.80602 24.0926 9.02627 23.7117 9.02627 23.3868C9.02627 23.0936 9.01524 22.1242 9.01003 21.0961C5.6716 21.8404 4.96716 19.6444 4.96716 19.6444C4.42124 18.2223 3.63482 17.8441 3.63482 17.8441C2.54595 17.0804 3.71689 17.0962 3.71689 17.0962C4.92177 17.1829 5.55637 18.3643 5.55637 18.3643C6.62663 20.2451 8.36358 19.7013 9.04845 19.3869C9.15617 18.5918 9.46702 18.0489 9.81031 17.7416C7.14492 17.4306 4.34292 16.3755 4.34292 11.6611C4.34292 10.3179 4.81174 9.22026 5.57944 8.35859C5.45486 8.04858 5.04407 6.79726 5.69572 5.10241C5.69572 5.10241 6.70344 4.77192 8.99641 6.36377C9.95368 6.09112 10.9803 5.9544 12.0001 5.94966C13.0198 5.9544 14.0472 6.09112 15.0061 6.36377C17.2966 4.77192 18.3029 5.10241 18.3029 5.10241C18.9561 6.79726 18.5453 8.04858 18.4207 8.35859C19.1901 9.22026 19.6557 10.3178 19.6557 11.6611C19.6557 16.3869 16.8484 17.4272 14.1762 17.7319C14.6066 18.1137 14.99 18.8625 14.99 20.0103C14.99 21.6566 14.9763 22.9816 14.9763 23.3868C14.9763 23.7143 15.1922 24.098 15.8004 23.9772C20.5659 22.3485 24 17.7381 24 12.3037C24 5.50832 18.6273 0 12 0Z" fill="#252B31"/>
</svg>
