<svg width="26" height="25" viewBox="0 0 26 25" fill="none" xmlns="http://www.w3.org/2000/svg">
<path d="M24.4672 10.3107C24.2444 10.3107 24.0308 10.3992 23.8733 10.5567C23.7158 10.7142 23.6273 10.9278 23.6273 11.1506C23.6225 11.6219 23.5718 12.0917 23.4761 12.5532C23.472 12.6091 23.472 12.6653 23.4761 12.7212C23.3552 13.3855 23.1223 14.0245 22.7874 14.6109C22.2044 15.6927 21.4071 16.6443 20.4441 17.4078C18.199 19.3366 15.7286 20.9864 13.0867 22.3211L13.2295 21.6072C13.272 21.3996 13.2694 21.1853 13.2218 20.9788C13.1742 20.7724 13.0828 20.5785 12.9538 20.4104C12.8248 20.2424 12.6611 20.104 12.4739 20.0047C12.2867 19.9055 12.0804 19.8476 11.8689 19.835C6.45997 19.3563 2.38652 15.6356 2.38652 11.1506C2.36972 6.32962 7.14028 2.39894 12.9943 2.39894C14.7397 2.34575 16.4733 2.70249 18.0559 3.44055C19.6385 4.17861 21.026 5.27742 22.1071 6.64878C22.1722 6.73812 22.2542 6.81377 22.3485 6.8714C22.4428 6.92904 22.5476 6.96754 22.6568 6.98469C22.7659 7.00185 22.8774 6.99734 22.9849 6.9714C23.0923 6.94547 23.1936 6.89863 23.2829 6.83356C23.3723 6.76848 23.4479 6.68645 23.5056 6.59214C23.5632 6.49783 23.6017 6.39309 23.6189 6.2839C23.636 6.17472 23.6315 6.06322 23.6056 5.95578C23.5796 5.84833 23.5328 5.74705 23.4677 5.65771C22.2293 4.07338 20.6368 2.80137 18.8179 1.94372C16.9991 1.08608 15.0045 0.666677 12.9943 0.719168C6.20801 0.719168 0.689941 5.39735 0.689941 11.1506C0.689941 16.4419 5.32612 20.8597 11.5077 21.4896L11.029 23.6985C10.9963 23.8536 11.0081 24.0147 11.0631 24.1633C11.1181 24.312 11.214 24.442 11.3397 24.5384C11.4863 24.6522 11.6665 24.7142 11.8521 24.7148C11.9835 24.714 12.113 24.6823 12.23 24.6224C15.5589 23.0643 18.6658 21.0703 21.4688 18.6928C22.5884 17.7999 23.5143 16.6882 24.19 15.4256C24.6578 14.6291 24.9713 13.7514 25.1139 12.8388C25.1139 12.8388 25.1139 12.7716 25.1139 12.738C25.2256 12.2157 25.2902 11.6844 25.3071 11.1506C25.3071 10.9278 25.2186 10.7142 25.0611 10.5567C24.9036 10.3992 24.6899 10.3107 24.4672 10.3107Z" fill="#252B31"/>
<path d="M5.1497 8.51334C4.92695 8.51334 4.71332 8.60182 4.55581 8.75933C4.3983 8.91684 4.30981 9.13047 4.30981 9.35322V13.5527C4.30981 13.7754 4.3983 13.989 4.55581 14.1466C4.71332 14.3041 4.92695 14.3926 5.1497 14.3926H7.66937C7.89212 14.3926 8.10575 14.3041 8.26326 14.1466C8.42077 13.989 8.50926 13.7754 8.50926 13.5527C8.50926 13.3299 8.42077 13.1163 8.26326 12.9588C8.10575 12.8013 7.89212 12.7128 7.66937 12.7128H5.98959V9.35322C5.98959 9.13047 5.9011 8.91684 5.74359 8.75933C5.58608 8.60182 5.37246 8.51334 5.1497 8.51334Z" fill="#252B31"/>
<path d="M9.34912 9.35322V13.5527C9.34912 13.7754 9.43761 13.989 9.59512 14.1466C9.75263 14.3041 9.96626 14.3926 10.189 14.3926C10.4118 14.3926 10.6254 14.3041 10.7829 14.1466C10.9404 13.989 11.0289 13.7754 11.0289 13.5527V9.35322C11.0289 9.13047 10.9404 8.91684 10.7829 8.75933C10.6254 8.60182 10.4118 8.51334 10.189 8.51334C9.96626 8.51334 9.75263 8.60182 9.59512 8.75933C9.43761 8.91684 9.34912 9.13047 9.34912 9.35322Z" fill="#252B31"/>
<path d="M15.2285 9.35322V11.159L13.3639 8.83249C13.2554 8.69676 13.1075 8.59801 12.9405 8.54988C12.7735 8.50174 12.5957 8.50658 12.4316 8.56373C12.2677 8.62102 12.1256 8.7277 12.0248 8.86908C11.9241 9.01047 11.8696 9.17961 11.8689 9.35322V13.5527C11.8689 13.7754 11.9574 13.989 12.1149 14.1466C12.2724 14.3041 12.486 14.3926 12.7088 14.3926C12.9315 14.3926 13.1452 14.3041 13.3027 14.1466C13.4602 13.989 13.5487 13.7754 13.5487 13.5527V11.7469L15.4132 14.0818C15.4923 14.1792 15.5922 14.2577 15.7055 14.3115C15.8189 14.3653 15.9429 14.393 16.0683 14.3926C16.1629 14.3915 16.2566 14.3744 16.3455 14.3422C16.5094 14.2849 16.6515 14.1782 16.7523 14.0368C16.8531 13.8954 16.9075 13.7263 16.9082 13.5527V9.35322C16.9082 9.13047 16.8197 8.91684 16.6622 8.75933C16.5047 8.60182 16.2911 8.51334 16.0683 8.51334C15.8456 8.51334 15.632 8.60182 15.4744 8.75933C15.3169 8.91684 15.2285 9.13047 15.2285 9.35322Z" fill="#252B31"/>
<path d="M21.1076 10.1931C21.3304 10.1931 21.544 10.1046 21.7015 9.94712C21.859 9.78961 21.9475 9.57598 21.9475 9.35322C21.9475 9.13047 21.859 8.91684 21.7015 8.75933C21.544 8.60182 21.3304 8.51334 21.1076 8.51334H18.5879C18.3652 8.51334 18.1516 8.60182 17.994 8.75933C17.8365 8.91684 17.748 9.13047 17.748 9.35322V13.5527C17.748 13.7754 17.8365 13.989 17.994 14.1466C18.1516 14.3041 18.3652 14.3926 18.5879 14.3926H21.1076C21.3304 14.3926 21.544 14.3041 21.7015 14.1466C21.859 13.989 21.9475 13.7754 21.9475 13.5527C21.9475 13.3299 21.859 13.1163 21.7015 12.9588C21.544 12.8013 21.3304 12.7128 21.1076 12.7128H19.4278V12.2928H21.1076C21.3304 12.2928 21.544 12.2043 21.7015 12.0468C21.859 11.8893 21.9475 11.6757 21.9475 11.4529C21.9475 11.2302 21.859 11.0166 21.7015 10.8591C21.544 10.7015 21.3304 10.6131 21.1076 10.6131H19.4278V10.1931H21.1076Z" fill="#252B31"/>
</svg>
