<svg width="25" height="24" viewBox="0 0 25 24" fill="none" xmlns="http://www.w3.org/2000/svg">
<path d="M22.9072 17.4136C21.9118 16.3909 19.0822 14.475 17.2277 14.475C16.7981 14.475 16.4231 14.5705 16.1163 14.7682C15.2095 15.3477 14.4868 15.7977 14.1391 15.7977C13.9481 15.7977 13.7436 15.6273 13.2936 15.2386L13.2186 15.1705C11.9709 14.0864 11.705 13.8068 11.2209 13.3023L11.0981 13.1727C11.0095 13.0841 10.9345 13.0023 10.8595 12.9273C10.4368 12.4909 10.13 12.1773 9.04587 10.95L8.99814 10.8955C8.47996 10.3091 8.13905 9.92727 8.1186 9.64773C8.09814 9.375 8.33678 8.93182 8.9436 8.10682C9.67996 7.11136 9.70723 5.88409 9.03223 4.45909C8.4936 3.33409 7.61405 2.25682 6.83678 1.30909L6.7686 1.22727C6.10041 0.409091 5.32314 0 4.45723 0C3.49587 0 2.69814 0.518182 2.27541 0.790909C2.24132 0.811364 2.20723 0.838636 2.17314 0.859091C1.22541 1.45909 0.536778 2.28409 0.277687 3.12273C-0.110949 4.38409 -0.37004 6.02046 1.49132 9.42273C3.10041 12.3682 4.55951 14.3455 6.87769 16.725C9.05951 18.9614 10.0277 19.6841 12.1959 21.2523C14.6095 22.9977 16.9277 24 18.5504 24C20.0572 24 21.2436 24 22.9345 21.9614C24.7072 19.8205 23.9709 18.5114 22.9072 17.4136Z" fill="#252B31"/>
</svg>
